<svg width="159" height="145" viewBox="0 0 159 145" fill="none" xmlns="http://www.w3.org/2000/svg">
<path d="M69.375 0.0460139C79.8011 0.0460139 89.4912 3.18422 97.5443 8.56368L89.3642 16.7085C74.9559 6.11333 58.8431 3.67717 50.7022 11.7828C44.173 18.2838 44.4543 29.8904 50.3113 41.6322C54.0276 49.0827 63.9506 49.3551 69.8584 43.4728L85.2476 28.1502L85.2987 28.201L113.52 0L110.058 13.4693C109.21 16.771 110.045 20.2379 111.905 23.099C117.026 30.9773 120 40.369 120 50.4521C120 67.1552 106.401 80.6958 89.625 80.6958C79.414 80.6958 69.9091 77.6857 61.9563 72.5082L70.0201 64.4793C84.3252 74.8261 100.215 77.1428 108.281 69.1123C114.694 62.7266 114.536 51.4147 108.978 39.8872C105.341 32.3444 95.3434 32.0258 89.4012 37.9423L73.0951 54.178L72.9922 54.0755L46.1566 81L49.409 67.8193C50.2288 64.4968 49.3504 61.025 47.447 58.1767C42.11 50.1903 39 40.6016 39 30.2897C39 13.5866 52.5994 0.0460139 69.375 0.0460139Z" fill="black"/>
<path d="M1.36 116.52H18.12V119.6L6.68 133.2H18.64V137H0.88V133.92L12.32 120.32H1.36V116.52ZM20.8913 126.8C20.8913 124.693 21.3046 122.853 22.1313 121.28C22.9846 119.68 24.1579 118.453 25.6513 117.6C27.1713 116.72 28.9046 116.28 30.8513 116.28C32.8246 116.28 34.5579 116.68 36.0513 117.48C37.5713 118.28 38.7579 119.413 39.6113 120.88C40.4913 122.347 40.9446 124.067 40.9713 126.04C40.9713 126.573 40.9313 127.12 40.8513 127.68H25.4112V127.92C25.5179 129.707 26.0779 131.12 27.0913 132.16C28.1046 133.2 29.4513 133.72 31.1313 133.72C32.4646 133.72 33.5846 133.413 34.4913 132.8C35.3979 132.16 35.9979 131.267 36.2913 130.12H40.6113C40.2379 132.2 39.2246 133.907 37.5713 135.24C35.9446 136.573 33.9046 137.24 31.4513 137.24C29.3179 137.24 27.4513 136.813 25.8513 135.96C24.2779 135.08 23.0513 133.853 22.1712 132.28C21.3179 130.707 20.8913 128.88 20.8913 126.8ZM36.5713 124.52C36.3846 123.027 35.7846 121.867 34.7713 121.04C33.7846 120.187 32.5313 119.76 31.0113 119.76C29.5979 119.76 28.3713 120.2 27.3313 121.08C26.3179 121.933 25.7313 123.08 25.5713 124.52H36.5713ZM55.7838 116.52V120.56H53.8638C52.0771 120.56 50.7838 121.147 49.9838 122.32C49.1838 123.467 48.7838 124.933 48.7838 126.72V137H44.4638V116.52H48.3038L48.7838 119.6C49.3704 118.64 50.1304 117.893 51.0638 117.36C51.9971 116.8 53.2504 116.52 54.8238 116.52H55.7838ZM68.2063 137.24C66.1529 137.24 64.3263 136.813 62.7263 135.96C61.1529 135.08 59.9263 133.853 59.0462 132.28C58.1929 130.68 57.7663 128.84 57.7663 126.76C57.7663 124.707 58.1929 122.893 59.0462 121.32C59.9263 119.72 61.1529 118.48 62.7263 117.6C64.3263 116.72 66.1529 116.28 68.2063 116.28C70.2596 116.28 72.0729 116.72 73.6463 117.6C75.2463 118.48 76.4729 119.72 77.3263 121.32C78.2063 122.893 78.6463 124.707 78.6463 126.76C78.6463 128.84 78.2063 130.68 77.3263 132.28C76.4729 133.853 75.2463 135.08 73.6463 135.96C72.0729 136.813 70.2596 137.24 68.2063 137.24ZM68.2063 133.56C70.0196 133.56 71.4729 132.933 72.5663 131.68C73.6863 130.4 74.2463 128.76 74.2463 126.76C74.2463 124.76 73.6863 123.133 72.5663 121.88C71.4729 120.6 70.0196 119.96 68.2063 119.96C66.3929 119.96 64.9396 120.6 63.8463 121.88C62.7529 123.133 62.2063 124.76 62.2063 126.76C62.2063 128.76 62.7529 130.4 63.8463 131.68C64.9396 132.933 66.3929 133.56 68.2063 133.56ZM92.92 116.28C95.3467 116.28 97.32 117.027 98.84 118.52C100.387 120.013 101.16 122.413 101.16 125.72V137H96.8V125.96C96.8 124.013 96.3867 122.533 95.56 121.52C94.7333 120.507 93.52 120 91.92 120C90.2133 120 88.8667 120.6 87.88 121.8C86.92 122.973 86.44 124.6 86.44 126.68V137H82.12V116.52H85.88L86.36 119.2C87.9067 117.253 90.0933 116.28 92.92 116.28ZM107.649 116.52L113.369 132.32L118.929 116.52H123.529L114.249 140.2C113.769 141.427 113.329 142.36 112.929 143C112.529 143.667 112.035 144.16 111.449 144.48C110.862 144.827 110.075 145 109.089 145H104.449V141.2H107.489C108.315 141.2 108.889 141.067 109.209 140.8C109.529 140.56 109.862 140 110.209 139.12L111.049 137.16L103.049 116.52H107.649ZM149.354 116.28C151.594 116.28 153.42 117.013 154.834 118.48C156.247 119.92 156.954 122.24 156.954 125.44V137H152.634V125.48C152.634 123.693 152.274 122.333 151.554 121.4C150.834 120.467 149.767 120 148.354 120C146.86 120 145.674 120.533 144.794 121.6C143.94 122.64 143.514 124.08 143.514 125.92V137H139.154V125.48C139.154 123.667 138.78 122.307 138.034 121.4C137.314 120.467 136.247 120 134.834 120C133.367 120 132.194 120.547 131.314 121.64C130.46 122.733 130.034 124.2 130.034 126.04V137H125.714V116.52H129.474L129.954 119.2C131.42 117.28 133.42 116.307 135.954 116.28C137.394 116.28 138.66 116.587 139.754 117.2C140.847 117.813 141.687 118.747 142.274 120C142.994 118.827 143.94 117.92 145.114 117.28C146.287 116.613 147.7 116.28 149.354 116.28Z" fill="black"/>
</svg>
